<?xml version="1.0" standalone="no"?>
<!DOCTYPE svg PUBLIC "-//W3C//DTD SVG 20010904//EN"
 "http://www.w3.org/TR/2001/REC-SVG-20010904/DTD/svg10.dtd">
<svg version="1.0" xmlns="http://www.w3.org/2000/svg"
 width="64.000000pt" height="64.000000pt" viewBox="0 0 64.000000 64.000000"
 preserveAspectRatio="xMidYMid meet">

<g transform="translate(0.000000,64.000000) scale(0.100000,-0.100000)"
fill="#000000" stroke="none">
<path d="M335 635 c-5 -2 -32 -6 -58 -10 -64 -9 -87 -32 -87 -91 0 -38 -4 -47
-20 -51 -54 -14 -159 -73 -165 -92 -8 -26 27 -156 59 -220 14 -26 43 -64 66
-85 49 -44 137 -86 180 -86 35 0 82 38 115 94 13 22 46 58 74 78 61 46 104
107 125 178 20 67 22 218 3 244 -17 23 -127 45 -217 45 -36 0 -69 -2 -75 -4z
m-142 -229 c7 -67 34 -130 76 -179 37 -41 40 -39 -61 -52 -27 -3 -48 -11 -48
-16 0 -12 106 -59 136 -59 12 0 31 11 42 25 18 23 22 24 51 12 l32 -13 -36
-47 c-45 -59 -70 -65 -138 -38 -65 27 -120 71 -153 122 -20 33 -74 192 -74
221 0 9 136 78 156 78 6 0 14 -24 17 -54z m269 -123 c-35 -28 -58 -29 -91 0
l-27 22 73 0 72 0 -27 -22z m-138 -138 c-18 -28 -31 -30 -69 -13 -45 20 -28
30 63 36 22 2 22 1 6 -23z"/>
<path d="M131 297 c-30 -15 -44 -44 -15 -32 11 5 36 10 57 13 39 4 48 16 21
26 -23 9 -36 7 -63 -7z"/>
</g>
</svg>
